<svg width="24" height="24" viewBox="0 0 24 24" fill="none" xmlns="http://www.w3.org/2000/svg">
<path d="M15.9316 11.779C17.7547 11.779 19.2313 10.1744 19.2313 8.20061C19.2313 6.25698 17.7623 4.70508 15.9316 4.70508C14.1236 4.70508 12.632 6.27958 12.632 8.21568C12.6395 10.1819 14.1161 11.779 15.9316 11.779ZM7.20033 11.9523C8.7899 11.9523 10.0706 10.5435 10.0706 8.80329C10.0706 7.10826 8.7899 5.73717 7.20033 5.73717C5.62584 5.73717 4.32254 7.13086 4.33008 8.81083C4.33008 10.5511 5.6183 11.9523 7.20033 11.9523ZM15.9316 10.4607C14.892 10.4607 14.0106 9.48131 14.0106 8.20815C14.0106 6.98019 14.8845 6.02344 15.9316 6.02344C16.9863 6.02344 17.8527 6.96512 17.8527 8.20061C17.8527 9.46624 16.9788 10.4607 15.9316 10.4607ZM7.20033 10.649C6.34905 10.649 5.62584 9.83538 5.62584 8.81083C5.62584 7.83147 6.34152 7.03292 7.20033 7.03292C8.07422 7.03292 8.78237 7.81641 8.78237 8.80329C8.78237 9.83538 8.05915 10.649 7.20033 10.649ZM3.05692 18.8756H8.91043C8.49609 18.6345 8.21735 18.0845 8.27009 17.5873H2.98912C2.84598 17.5873 2.78571 17.5195 2.78571 17.3915C2.78571 15.6663 4.80469 14.024 7.1928 14.024C8.03655 14.024 8.8803 14.2349 9.52818 14.5965C9.78432 14.2274 10.1007 13.911 10.5151 13.6398C9.55831 13.0522 8.36802 12.7358 7.1928 12.7358C4.00614 12.7358 1.42969 15.0109 1.42969 17.512C1.42969 18.416 1.9721 18.8756 3.05692 18.8756ZM11.2383 18.8756H20.625C21.9283 18.8756 22.5611 18.4612 22.5611 17.5723C22.5611 15.5006 19.9696 12.7433 15.9316 12.7433C11.8937 12.7433 9.30218 15.5006 9.30218 17.5723C9.30218 18.4612 9.93499 18.8756 11.2383 18.8756ZM10.9972 17.5572C10.8239 17.5572 10.7561 17.4969 10.7561 17.3613C10.7561 16.2087 12.6169 14.0617 15.9316 14.0617C19.2464 14.0617 21.1071 16.2087 21.1071 17.3613C21.1071 17.4969 21.0393 17.5572 20.8585 17.5572H10.9972Z" fill="#7F7CFA"/>
</svg>
